<svg width="48" height="48" viewBox="0 0 48 48" fill="none" xmlns="http://www.w3.org/2000/svg">
<mask id="path-1-inside-1_3_1236" fill="white">
<path d="M26.8852 16.0853C26.9177 16.0528 26.9519 16.0228 26.9902 15.9974C27.3585 15.7525 29.4849 14.5145 31.7989 16.8284C34.1128 19.1424 32.8748 21.2688 32.63 21.6371C32.6045 21.6754 32.5745 21.7096 32.542 21.7421L22.8216 31.4625C22.6992 31.585 22.547 31.6736 22.38 31.7195L16.5252 33.3317C15.7771 33.5377 15.0896 32.8503 15.2956 32.1021L16.9078 26.2473C16.9538 26.0803 17.0423 25.9281 17.1648 25.8057L26.8852 16.0853Z"/>
</mask>
<path d="M25.2278 19.299L29.4705 23.5416L30.8847 22.1274L26.642 17.8848L25.2278 19.299ZM16.5252 33.3317L15.9942 31.4035L16.5252 33.3317ZM15.2956 32.1021L17.2238 32.6331L15.2956 32.1021ZM16.9078 26.2473L18.836 26.7783L16.9078 26.2473ZM22.38 31.7195L21.8491 29.7913L22.38 31.7195ZM32.63 21.6371L34.2955 22.7443L32.63 21.6371ZM31.1278 20.3279L21.4074 30.0483L24.2359 32.8767L33.9563 23.1563L31.1278 20.3279ZM18.579 27.2199L28.2994 17.4995L25.471 14.6711L15.7506 24.3915L18.579 27.2199ZM21.8491 29.7913L15.9942 31.4035L17.0561 35.26L22.911 33.6478L21.8491 29.7913ZM17.2238 32.6331L18.836 26.7783L14.9795 25.7163L13.3673 31.5712L17.2238 32.6331ZM28.0974 17.6629C28.1291 17.6418 28.4073 17.4719 28.7821 17.4499C29.0608 17.4335 29.6187 17.4767 30.3847 18.2426L33.2131 15.4142C31.6651 13.8662 30.0028 13.3714 28.5478 13.4568C27.1888 13.5365 26.2196 14.108 25.883 14.3318L28.0974 17.6629ZM30.3847 18.2426C31.1506 19.0086 31.1938 19.5665 31.1774 19.8452C31.1554 20.22 30.9855 20.4982 30.9644 20.5299L34.2955 22.7443C34.5193 22.4077 35.0908 21.4386 35.1705 20.0796C35.2559 18.6245 34.7611 16.9622 33.2131 15.4142L30.3847 18.2426ZM15.9942 31.4035C16.7423 31.1975 17.4298 31.885 17.2238 32.6331L13.3673 31.5712C12.7493 33.8155 14.8118 35.878 17.0561 35.26L15.9942 31.4035ZM15.7506 24.3915C15.3832 24.7589 15.1175 25.2154 14.9795 25.7163L18.836 26.7783C18.79 26.9452 18.7015 27.0974 18.579 27.2199L15.7506 24.3915ZM21.4074 30.0483C21.5299 29.9258 21.6821 29.8373 21.8491 29.7913L22.911 33.6478C23.4119 33.5098 23.8684 33.2441 24.2359 32.8767L21.4074 30.0483ZM33.9563 23.1563C34.0483 23.0643 34.174 22.9271 34.2955 22.7443L30.9644 20.5299C31.035 20.4237 31.1008 20.355 31.1278 20.3279L33.9563 23.1563ZM28.2994 17.4995C28.2724 17.5265 28.2036 17.5923 28.0974 17.6629L25.883 14.3318C25.7002 14.4533 25.563 14.579 25.471 14.6711L28.2994 17.4995Z" fill="#222222" mask="url(#path-1-inside-1_3_1236)"/>
</svg>
